<svg width="1023" height="322" viewBox="0 0 1023 322" fill="none" xmlns="http://www.w3.org/2000/svg">
<path d="M156.641 155.88C150.955 148.083 144.944 141.666 144.944 127.126V78.8788C144.944 58.3289 146.406 39.5659 131.298 25.4327C119.439 14.0612 99.7018 10 84.594 10C55.1093 10 22.1319 21.0466 15.2278 57.5166C14.4968 61.3342 17.3396 63.3648 19.8576 64.0146L49.9109 67.2636C52.7537 67.1012 54.7844 64.3395 55.353 61.5778C57.9522 48.988 68.4302 42.8961 80.289 42.8961C86.7058 42.8961 93.9348 45.3329 97.6712 50.9374C102.057 57.3542 101.489 66.0452 101.489 73.4367V77.4979C83.4568 79.4473 59.9828 80.8282 43.088 88.2196C33.0398 92.2506 24.4764 99.2778 18.5618 108.346C12.6471 117.414 9.66803 128.084 10.0294 138.904C10.0294 171.15 30.3356 187.233 56.4901 187.233C78.5833 187.233 90.6046 182.035 107.662 164.734C113.266 172.856 115.053 176.917 125.369 185.446C126.527 186.065 127.845 186.319 129.15 186.174C130.455 186.029 131.685 185.492 132.679 184.634L156.559 164.165C159.159 162.053 158.671 158.723 156.641 155.88ZM101.408 109.013C101.408 121.197 101.732 131.188 95.7218 141.991C90.7671 150.682 82.8882 156.043 74.1972 156.043C62.2571 156.043 55.353 146.945 55.353 133.543C55.353 107.145 78.9894 102.353 101.489 102.353L101.408 109.013ZM563.334 155.88C557.649 148.083 551.638 141.666 551.638 127.126V78.8788C551.638 58.3289 553.1 39.5659 537.992 25.4327C526.052 14.0612 506.314 10 491.288 10C461.722 10 428.744 21.0466 421.922 57.5166C421.109 61.3342 424.033 63.4461 426.551 64.0146L456.605 67.2636C459.366 67.1012 461.478 64.3395 461.965 61.5778C464.565 48.988 475.124 42.8961 486.902 42.8961C493.318 42.8961 500.547 45.3329 504.284 50.9374C508.67 57.3542 508.101 66.0452 508.101 73.4367V77.4979C490.151 79.5286 466.595 80.8282 449.782 88.2196C439.711 92.2277 431.124 99.247 425.193 108.319C419.261 117.39 416.275 128.072 416.642 138.904C416.642 171.15 436.948 187.233 463.103 187.233C485.196 187.233 497.217 182.035 514.274 164.734C519.879 172.856 521.747 176.917 532.063 185.446C533.218 186.076 534.538 186.337 535.846 186.191C537.153 186.046 538.385 185.502 539.373 184.634V184.715C545.627 179.192 556.918 169.445 563.253 164.165C565.69 162.053 565.365 158.723 563.253 155.88M502.334 141.991C497.38 150.682 489.501 156.043 480.81 156.043C468.87 156.043 461.965 146.945 461.965 133.543C461.965 107.145 485.683 102.353 508.101 102.353V109.094C508.101 121.197 508.426 131.188 502.334 141.991ZM921.455 185.04H890.509C889.042 184.959 887.66 184.329 886.637 183.276C885.613 182.222 885.024 180.822 884.985 179.354L884.904 20.1531C885.047 18.6885 885.737 17.3316 886.836 16.353C887.935 15.3744 889.362 14.8461 890.834 14.8735H919.587C920.871 14.9086 922.107 15.3651 923.105 16.1724C924.103 16.9798 924.808 18.0932 925.111 19.3409V43.7084H925.76C934.451 21.9401 946.554 11.5433 967.997 11.5433C975.146 11.1886 982.262 12.7297 988.624 16.0104C994.986 19.2911 1000.37 24.1949 1004.22 30.225C1012.35 43.0585 1012.35 64.4207 1012.35 79.8535V180.085C1012.11 181.498 1011.37 182.777 1010.27 183.688C1009.16 184.599 1007.77 185.079 1006.34 185.04H975.226C973.875 184.98 972.586 184.454 971.578 183.551C970.571 182.647 969.908 181.423 969.703 180.085V93.5805C969.703 76.1983 971.734 50.7749 950.372 50.7749C946.474 50.9224 942.703 52.1982 939.516 54.4475C936.33 56.6968 933.865 59.8228 932.421 63.4461C928.595 73.0104 926.904 83.2947 927.466 93.5805V179.354C927.403 180.898 926.739 182.357 925.616 183.419C924.494 184.481 923.001 185.062 921.455 185.04ZM790.764 11.5433C836.819 11.5433 861.674 51.0998 861.674 101.297C861.674 149.869 834.22 188.451 790.764 188.451C745.603 188.451 720.911 148.895 720.911 99.6724C720.911 50.1252 745.847 11.5433 790.764 11.5433ZM791.089 44.0333C768.184 44.0333 766.722 75.2237 766.722 94.6365C766.722 114.049 766.397 155.555 790.764 155.555C814.807 155.555 815.944 122.091 815.944 101.703C816.454 87.4741 814.895 73.2465 811.314 59.466C807.822 48.4194 800.918 44.0333 791.008 44.0333M217.478 185.04H186.45C185.048 184.99 183.71 184.438 182.681 183.483C181.652 182.529 181.001 181.236 180.846 179.842V20.6404C180.846 17.3914 183.607 14.9547 186.856 14.9547H215.772C218.778 15.0359 221.214 17.3914 221.458 20.2343V41.0279H222.027C229.499 20.8841 243.714 11.5433 262.802 11.5433C282.214 11.5433 294.398 20.8841 303.089 41.0279C306.172 32.2066 311.981 24.5947 319.676 19.2941C327.372 13.9934 336.554 11.2789 345.895 11.5433C358.891 11.5433 373.105 16.9041 381.796 28.9254C391.706 42.3275 389.675 61.8215 389.675 78.8788V179.354C389.675 182.522 386.914 185.04 383.665 185.04H352.637C351.164 184.978 349.77 184.354 348.743 183.296C347.716 182.239 347.133 180.828 347.113 179.354V94.8802C347.113 88.2197 347.682 71.4873 346.22 65.1518C343.864 54.4301 336.96 51.3435 327.944 51.3435C323.918 51.477 320.018 52.7865 316.727 55.1104C313.436 57.4342 310.898 60.6709 309.425 64.4208C306.176 72.5433 306.582 85.8641 306.582 94.9613V179.354C306.582 182.603 303.902 185.04 300.571 185.04H269.543C268.077 184.959 266.695 184.329 265.671 183.276C264.648 182.222 264.059 180.822 264.02 179.354V94.8802C264.02 77.1731 266.863 51.0186 244.851 51.0186C222.595 51.0186 223.408 76.5233 223.408 94.8802V179.354C223.408 180.122 223.253 180.882 222.953 181.588C222.652 182.294 222.211 182.932 221.657 183.463C221.103 183.995 220.447 184.408 219.729 184.679C219.011 184.95 218.245 185.073 217.478 185.04ZM589.408 42.9773V20.2343C589.408 18.7263 590.007 17.2801 591.073 16.2139C592.139 15.1476 593.585 14.5486 595.093 14.5486H697.193C700.442 14.5486 703.041 16.8229 703.041 20.2343V39.7283C703.041 42.9773 700.28 47.2823 695.406 54.0239L642.61 129.482C662.104 128.995 682.898 131.919 700.767 141.909C704.747 144.184 705.803 147.595 706.128 150.844V175.13C706.128 178.379 702.473 182.278 698.655 180.329C681.981 171.75 663.495 167.287 644.743 167.316C625.991 167.344 607.518 171.862 590.87 180.491C587.377 182.36 583.641 178.542 583.641 175.212V152.144C583.641 148.489 583.641 142.153 587.458 136.549L648.621 48.7443H595.337C594.577 48.766 593.82 48.635 593.111 48.3591C592.403 48.0831 591.756 47.6677 591.211 47.1376C590.666 46.6074 590.232 45.9732 589.937 45.2726C589.641 44.5719 589.488 43.8191 589.489 43.0585M655.85 218.505C648.377 209.001 606.627 214.037 587.783 216.23C582.097 216.961 581.285 212.007 586.402 208.352C619.705 184.959 674.369 191.7 680.623 199.579C687.121 207.458 678.999 262.204 647.727 288.358C642.935 292.419 638.386 290.226 640.498 284.947C647.565 267.402 663.241 228.089 655.85 218.505ZM631.563 246.202C573.325 289.17 488.932 311.995 416.236 311.995C319.105 312.504 225.283 276.73 153.148 211.682C147.706 206.808 152.579 200.067 159.159 203.803C239.294 249.626 330.016 273.706 422.328 273.656C486.902 273.656 557.811 260.254 623.116 232.557C632.944 228.495 641.229 239.055 631.563 246.202Z" fill="#BCBCBC"/>
</svg>
