<svg width="302" height="302" viewBox="0 0 302 302" fill="none" xmlns="http://www.w3.org/2000/svg">
<g clip-path="url(#clip0_89_22)">
<path d="M183.39 12.8388C182.169 11.6182 179.728 5.5155 171.172 5.5155H86.8154C86.8154 5.5155 99.0334 6.73605 103.929 18.9545C103.929 18.9545 117.38 50.7513 129.597 81.315C165.056 164.451 220.069 296.477 220.069 296.477H301.997C303.217 295.257 184.636 14.0697 183.403 12.8491L183.39 12.8388ZM72.1441 23.8488L4.90126 182.789C1.22706 193.799 3.66814 207.25 23.2352 207.25H75.8071L122.263 95.9916C107.591 59.3124 95.3868 29.9567 95.3868 29.9567C94.1662 26.2825 90.492 16.5052 83.1561 16.5052C75.8203 16.5052 73.3791 22.6204 72.1587 23.841L72.1441 23.8488ZM70.911 220.69H14.6773C4.9003 220.69 0.00512695 214.575 0.00512695 214.575C9.78212 231.688 37.9049 285.492 37.9049 285.492C42.7997 291.607 47.6819 295.269 55.0182 295.269C70.911 295.269 95.3717 279.376 95.3717 279.376L189.505 220.689L70.911 220.69Z" fill="#BCBCBC"/>
</g>
<defs>
<clipPath id="clip0_89_22">
<rect width="302" height="302" fill="white"/>
</clipPath>
</defs>
</svg>
