<svg width="917" height="302" viewBox="0 0 917 302" fill="none" xmlns="http://www.w3.org/2000/svg">
<path d="M118.579 201.819C71.5735 201.819 34.7771 163.901 34.7771 116.896C34.7771 69.8908 71.5735 31.9725 118.579 31.9725C143.932 31.9725 162.443 41.9569 176.129 54.7459L198.678 32.1969C179.607 13.9108 154.141 0 118.579 0C54.185 0 0 52.5022 0 116.896C0 181.29 54.185 233.792 118.579 233.792C153.356 233.792 179.607 222.349 200.137 201.034C221.227 179.944 227.734 150.327 227.734 126.319C227.734 118.803 226.837 111.062 225.827 105.341H118.579V136.528H194.976C192.733 156.048 186.562 169.398 177.475 178.485C166.481 189.591 149.093 201.819 118.579 201.819Z" fill="#BCBCBC"/>
<path d="M392.612 159.051C392.612 202.242 358.957 233.99 317.673 233.99C276.389 233.99 242.734 202.13 242.734 159.051C242.734 115.636 276.389 84 317.673 84C358.957 84 392.612 115.636 392.612 159.051ZM359.854 159.051C359.854 132.127 340.334 113.617 317.673 113.617C295.012 113.617 275.492 132.127 275.492 159.051C275.492 185.751 295.012 204.486 317.673 204.486C340.334 204.486 359.854 185.751 359.854 159.051Z" fill="#BCBCBC"/>
<path d="M557.49 158.939C557.49 202.13 523.835 233.878 482.551 233.878C441.267 233.878 407.612 202.13 407.612 158.939C407.612 115.524 441.267 84 482.551 84C523.835 84 557.49 115.412 557.49 158.939ZM524.62 158.939C524.62 132.015 505.1 113.504 482.439 113.504C459.778 113.504 440.258 132.015 440.258 158.939C440.258 185.639 459.778 204.374 482.439 204.374C505.212 204.374 524.62 185.527 524.62 158.939Z" fill="#BCBCBC"/>
<path d="M684.899 89.9458H716.086V223.221C716.086 278.527 683.441 301.301 644.849 301.301C608.501 301.301 586.626 276.845 578.436 256.988L607.043 245.097C612.204 257.325 624.656 271.796 644.849 271.796C669.642 271.796 684.899 256.427 684.899 227.708V216.938H683.777C676.373 225.913 662.238 233.99 644.288 233.99C606.819 233.99 572.49 201.345 572.49 159.276C572.49 116.982 606.819 84 644.288 84C662.126 84 676.373 91.9651 683.777 100.715H684.899V89.9458ZM687.143 159.276C687.143 132.8 669.53 113.504 647.093 113.504C624.432 113.504 605.36 132.8 605.36 159.276C605.36 185.415 624.432 204.374 647.093 204.374C669.53 204.486 687.143 185.415 687.143 159.276Z" fill="#BCBCBC"/>
<path d="M731.086 7.17969H763.395V226.612H731.086V7.17969Z" fill="#BCBCBC"/>
<path d="M889.682 176.62L915.26 193.672C906.958 205.9 887.102 226.878 852.773 226.878C810.143 226.878 778.395 193.896 778.395 151.939C778.395 107.29 810.48 77 849.184 77C888.111 77 907.183 107.963 913.353 124.678L916.718 133.204L816.426 174.712C824.054 189.745 835.946 197.374 852.773 197.374C869.601 197.374 881.268 189.072 889.682 176.62ZM811.041 149.583L878.015 121.762C874.313 112.45 863.319 105.831 850.193 105.831C833.478 105.831 810.256 120.64 811.041 149.583Z" fill="#BCBCBC"/>
</svg>
