<svg width="302" height="302" viewBox="0 0 302 302" fill="none" xmlns="http://www.w3.org/2000/svg">
<path d="M240.168 23.5069C226.234 7.62472 201.046 0.815674 168.823 0.815674H75.3031C68.7104 0.815674 63.1084 5.61031 62.0762 12.1114L23.1365 259.077C22.3623 263.946 26.1331 268.358 31.0692 268.358H88.8046L103.305 176.386L102.856 179.266C103.888 172.765 109.448 167.97 116.032 167.97H143.468C197.366 167.97 239.569 146.078 251.897 82.7489C252.263 80.876 252.58 79.0531 252.854 77.2717C251.298 76.4477 251.298 76.4477 252.854 77.2717C256.525 53.8646 252.829 37.9325 240.168 23.5069Z" fill="#BCBCBC"/>
<path d="M251.897 82.7489C239.569 146.07 197.366 167.97 143.468 167.97H116.024C109.44 167.97 103.879 172.765 102.856 179.266L84.8174 293.621C84.1431 297.883 87.4394 301.745 91.7513 301.745H140.422C146.182 301.745 151.085 297.55 151.984 291.865L152.458 289.384L161.631 231.249L162.222 228.036C163.121 222.351 168.024 218.156 173.784 218.156H181.068C228.215 218.156 265.132 199.002 275.92 143.606C280.423 120.457 278.093 101.128 266.181 87.5519C262.568 83.4398 258.082 80.0436 252.854 77.2717C252.571 79.0614 252.263 80.876 251.897 82.7489Z" fill="#989898"/>
</svg>
