<svg width="1201" height="302" viewBox="0 0 1201 302" fill="none" xmlns="http://www.w3.org/2000/svg">
<path d="M387.713 118.096C387.713 96.5568 366.767 73.6803 330.521 73.6803C289.819 73.6803 245.106 103.539 238.273 163.107C231.291 223.269 268.725 250.008 306.456 250.008C344.188 250.008 363.945 235.302 384.148 215.693C366.767 193.856 344.336 203.958 340.029 206.186C335.275 208.563 329.184 211.831 316.706 211.831C302.149 211.831 287.294 205.295 287.294 178.11C380.582 168.9 387.713 139.636 387.713 118.096ZM341.514 121.662C340.92 128.346 338.246 139.785 291.007 146.172C300.96 110.818 319.974 108.144 328.739 108.144C336.909 108.144 342.108 114.531 341.514 121.662ZM183.458 127.455C183.458 127.455 163.404 190.44 161.77 195.639C161.176 190.291 146.469 77.2455 146.469 77.2455C112.303 77.2455 94.0315 101.607 84.3758 127.306C84.3758 127.306 60.0138 190.44 57.9341 195.787C57.7855 190.885 54.2204 128.049 54.2204 128.049C52.1407 96.5568 23.3222 77.394 0 77.394L28.2243 248.671C64.0246 248.522 83.336 224.309 93.4373 198.61C93.4373 198.61 114.977 142.904 115.868 140.379C116.017 142.756 131.317 248.671 131.317 248.671C167.266 248.671 186.577 225.943 196.976 201.135L247.334 77.394C211.831 77.394 193.114 101.607 183.458 127.455ZM519.624 73.3832C497.49 73.3832 480.556 85.4156 466.295 103.093V102.944L479.07 0C449.658 0 425.741 25.5504 421.136 63.5789L398.854 247.334C415.788 247.334 433.763 242.432 443.419 229.954C452.034 241.095 464.958 250.008 484.121 250.008C533.736 250.008 567.754 192.371 567.754 138.299C567.457 88.9808 543.541 73.3832 519.624 73.3832ZM515.019 161.77C509.82 191.925 493.034 212.425 476.842 212.425C460.502 212.425 453.52 205.146 453.52 205.146C456.639 178.704 458.571 162.513 464.513 148.549C470.454 134.585 484.567 112.303 499.273 112.303C513.682 112.303 520.218 131.466 515.019 161.77ZM691.644 77.394H657.032L657.181 75.6114C659.557 53.032 664.905 41.1481 682.582 39.2169C694.615 38.0285 699.963 31.7895 701.3 24.9562C702.339 19.6085 705.607 1.03984 705.607 1.03984C636.087 0.594196 614.25 30.6011 608.605 76.3542L608.456 77.394H607.714C596.424 77.394 583.946 90.1692 581.866 106.361L581.123 112.303H604.297L584.837 273.033L578.895 301.851C579.638 301.851 580.529 302 581.272 302C613.804 300.812 634.601 275.113 639.206 237.827L654.358 112.303H665.202C675.898 112.303 688.376 101.607 690.604 83.7816L691.644 77.394ZM871.685 74.423C831.725 74.423 793.994 103.836 782.407 150.034C770.82 196.233 788.349 250.899 847.175 250.899C905.851 250.899 939.721 194.005 939.721 146.618C939.721 99.5278 907.783 74.423 871.685 74.423ZM887.877 160.284C885.797 181.23 876.587 213.019 851.334 213.019C825.932 213.019 829.497 175.882 832.023 158.205C834.696 139.339 845.243 112.452 867.971 112.452C888.323 112.452 890.254 136.665 887.877 160.284ZM1137.14 127.455C1137.14 127.455 1117.09 190.44 1115.45 195.639C1114.86 190.291 1100.15 77.2455 1100.15 77.2455C1065.99 77.2455 1047.72 101.607 1038.06 127.306C1038.06 127.306 1013.7 190.44 1011.62 195.787C1011.47 190.885 1007.9 128.049 1007.9 128.049C1005.82 96.5568 977.006 77.394 953.684 77.394L981.76 248.671C1017.56 248.522 1036.87 224.309 1046.97 198.61C1046.97 198.61 1068.51 142.904 1069.26 140.379C1069.4 142.756 1084.7 248.671 1084.7 248.671C1120.65 248.671 1139.96 225.943 1150.36 201.135L1200.72 77.394C1165.37 77.394 1146.65 101.607 1137.14 127.455ZM724.325 1.03984L695.209 235.896L689.267 264.863C690.01 264.863 690.901 265.011 691.644 265.011C722.988 264.566 745.27 237.084 749.429 202.472L766.215 67.7383C771.266 26.5903 746.756 1.03984 724.325 1.03984Z" fill="#BCBCBC"/>
</svg>
